<mxfile host="app.diagrams.net" agent="Mozilla/5.0 (Windows NT 10.0; Win64; x64; rv:135.0) Gecko/20100101 Firefox/135.0" version="26.2.14">
  <diagram name="Page-1" id="d2F022jsGiQBWwaXtlzM">
    <mxGraphModel dx="786" dy="419" grid="1" gridSize="10" guides="1" tooltips="1" connect="1" arrows="1" fold="1" page="1" pageScale="1" pageWidth="850" pageHeight="1100" math="0" shadow="0">
      <root>
        <mxCell id="0" />
        <mxCell id="1" parent="0" />
        <mxCell id="MIFq4Sk5JBAP3x7aosd7-4" value="" style="edgeStyle=orthogonalEdgeStyle;rounded=0;orthogonalLoop=1;jettySize=auto;html=1;" parent="1" source="MIFq4Sk5JBAP3x7aosd7-1" edge="1">
          <mxGeometry relative="1" as="geometry">
            <mxPoint x="70" y="80" as="targetPoint" />
          </mxGeometry>
        </mxCell>
        <mxCell id="MIFq4Sk5JBAP3x7aosd7-1" value="Toyota" style="rounded=0;whiteSpace=wrap;html=1;strokeColor=light-dark(#000000,#FF51E5);" parent="1" vertex="1">
          <mxGeometry x="20" y="10" width="90" height="30" as="geometry" />
        </mxCell>
        <mxCell id="MIFq4Sk5JBAP3x7aosd7-5" value="" style="rounded=1;whiteSpace=wrap;html=1;" parent="1" vertex="1">
          <mxGeometry x="30" y="80" width="90" height="30" as="geometry" />
        </mxCell>
      </root>
    </mxGraphModel>
  </diagram>
</mxfile>
